<svg width="166" height="32" viewBox="0 0 166 32" fill="none" xmlns="http://www.w3.org/2000/svg">
<path d="M8.38676 25.6638C9.90773 25.6638 11.1408 24.4309 11.1408 22.9099C11.1408 21.3889 9.90773 20.1559 8.38676 20.1559C6.86579 20.1559 5.63281 21.3889 5.63281 22.9099C5.63281 24.4309 6.86579 25.6638 8.38676 25.6638Z" stroke="#0AAD0A" stroke-width="1.32414" stroke-miterlimit="10" stroke-linecap="round"/>
<path d="M7.20312 9.48587H23.8623" stroke="#0AAD0A" stroke-width="1.32414" stroke-miterlimit="10" stroke-linecap="round"/>
<path d="M8.65625 12.8177H23.1288" stroke="#0AAD0A" stroke-width="1.32414" stroke-miterlimit="10" stroke-linecap="round"/>
<path d="M7.90625 20.1549H18.6961C19.8778 20.1549 20.9305 19.4041 21.3146 18.2858L25.7616 5.34804C26.1458 4.22981 27.1975 3.4791 28.3802 3.4791H31.6152" stroke="#0AAD0A" stroke-width="1.32414" stroke-miterlimit="10" stroke-linecap="round"/>
<path d="M8.38212 23.3075C8.60178 23.3075 8.77985 23.1294 8.77985 22.9098C8.77985 22.6901 8.60178 22.5121 8.38212 22.5121C8.16245 22.5121 7.98438 22.6901 7.98438 22.9098C7.98438 23.1294 8.16245 23.3075 8.38212 23.3075Z" stroke="#0AAD0A" stroke-width="1.10345" stroke-miterlimit="10" stroke-linecap="round"/>
<path d="M18.3946 25.6638C19.9155 25.6638 21.1484 24.4309 21.1484 22.9099C21.1484 21.3889 19.9155 20.1559 18.3946 20.1559C16.8736 20.1559 15.6406 21.3889 15.6406 22.9099C15.6406 24.4309 16.8736 25.6638 18.3946 25.6638Z" stroke="#0AAD0A" stroke-width="1.32414" stroke-miterlimit="10" stroke-linecap="round"/>
<path d="M18.3977 23.3075C18.6173 23.3075 18.7955 23.1294 18.7955 22.9097C18.7955 22.6901 18.6173 22.512 18.3977 22.512C18.1781 22.512 18 22.6901 18 22.9097C18 23.1294 18.1781 23.3075 18.3977 23.3075Z" stroke="#0AAD0A" stroke-width="1.10345" stroke-miterlimit="10" stroke-linecap="round"/>
<path d="M21.8729 16.673H7.3805C6.89531 16.673 6.46947 16.3366 6.3362 15.8471L3.87795 6.84261C3.75508 6.3936 4.0768 5.94568 4.52244 5.94568H23.1015" stroke="#0AAD0A" stroke-width="1.32414" stroke-miterlimit="10" stroke-linecap="round"/>
<path d="M1.03125 27.3827C1.03125 27.3827 11.6222 23.7989 25.9147 27.3827" stroke="#0AAD0A" stroke-width="1.32414" stroke-miterlimit="10" stroke-linecap="round"/>
<path d="M37.7031 25.8064V6.5462H50.4554V9.90357H41.7752V14.4929H49.6091V17.8503H41.7752V25.8064H37.7031Z" fill="#21313C"/>
<path d="M52.0938 25.8065V11.3613H55.9777V13.8816H56.1282C56.3916 12.9851 56.8336 12.3079 57.4543 11.8503C58.075 11.3863 58.7897 11.1544 59.5985 11.1544C59.799 11.1544 60.0154 11.1669 60.2473 11.192C60.4793 11.217 60.6831 11.2515 60.8587 11.2954V14.8503C60.6706 14.7939 60.4103 14.7438 60.0781 14.6998C59.7458 14.6559 59.4417 14.634 59.1659 14.634C58.5765 14.634 58.0499 14.7625 57.5859 15.0196C57.1283 15.2704 56.7646 15.6215 56.495 16.0729C56.2317 16.5243 56.1 17.0447 56.1 17.634V25.8065H52.0938Z" fill="#21313C"/>
<path d="M68.049 26.0886C66.563 26.0886 65.2841 25.7876 64.2119 25.1858C63.1461 24.5775 62.3248 23.7186 61.7479 22.6089C61.1712 21.4929 60.8828 20.1732 60.8828 18.6497C60.8828 17.1638 61.1712 15.8597 61.7479 14.7374C62.3248 13.6152 63.1367 12.7405 64.1838 12.1136C65.237 11.4867 66.4721 11.1732 67.8891 11.1732C68.842 11.1732 69.7292 11.3268 70.5505 11.634C71.3781 11.935 72.0991 12.3895 72.7135 12.9976C73.3342 13.6058 73.817 14.3707 74.1618 15.2923C74.5067 16.2077 74.679 17.2798 74.679 18.5086V19.6089H62.4816V17.1262H70.9079C70.9079 16.5494 70.7825 16.0384 70.5316 15.5932C70.2809 15.1481 69.9329 14.8001 69.4878 14.5494C69.0489 14.2923 68.5379 14.1637 67.9549 14.1637C67.3467 14.1637 66.8076 14.3048 66.3374 14.5869C65.8734 14.8629 65.5097 15.2358 65.2464 15.7061C64.9832 16.17 64.8483 16.6873 64.842 17.2578V19.6183C64.842 20.333 64.9737 20.9506 65.237 21.471C65.5066 21.9913 65.886 22.3926 66.3749 22.6748C66.864 22.9569 67.444 23.0979 68.1147 23.0979C68.5599 23.0979 68.9675 23.0352 69.3373 22.9098C69.7073 22.7844 70.0239 22.5963 70.2872 22.3456C70.5505 22.0948 70.7511 21.7876 70.889 21.424L74.5944 21.6684C74.4063 22.5588 74.0207 23.3361 73.4376 24.0007C72.8608 24.6591 72.1148 25.1732 71.1994 25.5431C70.2903 25.9067 69.2402 26.0886 68.049 26.0886Z" fill="#21313C"/>
<path d="M88.5178 15.4804L84.85 15.7061C84.7873 15.3926 84.6526 15.1105 84.4456 14.8597C84.2387 14.6026 83.966 14.3989 83.6274 14.2484C83.2951 14.0917 82.897 14.0133 82.4331 14.0133C81.8124 14.0133 81.2888 14.1449 80.8625 14.4083C80.4362 14.6653 80.223 15.0102 80.223 15.4428C80.223 15.7876 80.361 16.0792 80.6369 16.3174C80.9127 16.5557 81.3861 16.7468 82.057 16.891L84.6714 17.4177C86.0757 17.7061 87.1228 18.17 87.8124 18.8095C88.5021 19.4491 88.8468 20.2891 88.8468 21.33C88.8468 22.2766 88.5679 23.1073 88.0099 23.822C87.4581 24.5368 86.6995 25.0948 85.7341 25.496C84.7748 25.891 83.6682 26.0886 82.4143 26.0886C80.5021 26.0886 78.9786 25.6904 77.8437 24.8941C76.7152 24.0917 76.0537 23.0008 75.8594 21.6215L79.7998 21.4145C79.9189 21.9976 80.2074 22.4427 80.6651 22.7499C81.1228 23.0509 81.709 23.2013 82.4237 23.2013C83.1259 23.2013 83.6901 23.0666 84.1165 22.797C84.549 22.5211 84.7685 22.1669 84.7748 21.7343C84.7685 21.3706 84.6149 21.0728 84.314 20.8409C84.013 20.6026 83.5491 20.4208 82.9221 20.2954L80.4205 19.797C79.0099 19.5148 77.9597 19.0259 77.2701 18.3299C76.5867 17.634 76.245 16.7468 76.245 15.6684C76.245 14.7405 76.4958 13.9412 76.9973 13.2704C77.5052 12.5995 78.2167 12.0823 79.1322 11.7186C80.0538 11.3549 81.1322 11.1732 82.3673 11.1732C84.1917 11.1732 85.6274 11.5587 86.6744 12.3299C87.7278 13.1011 88.3422 14.1512 88.5178 15.4804Z" fill="#21313C"/>
<path d="M94.5765 17.4553V25.8064H90.5703V6.5462H94.4637V13.9099H94.633C94.959 13.0571 95.4856 12.3895 96.2129 11.9067C96.9402 11.4177 97.8524 11.1732 98.9496 11.1732C99.9527 11.1732 100.827 11.3926 101.573 11.8314C102.326 12.264 102.909 12.8879 103.323 13.7029C103.743 14.5117 103.949 15.4804 103.943 16.6089V25.8064H99.937V17.3237C99.9433 16.4333 99.7177 15.7406 99.26 15.2453C98.8086 14.7499 98.1753 14.5023 97.3603 14.5023C96.8147 14.5023 96.3321 14.6183 95.9119 14.8503C95.4982 15.0822 95.1721 15.4208 94.9339 15.8659C94.7019 16.3048 94.5828 16.8346 94.5765 17.4553Z" fill="#21313C"/>
<path d="M123.372 13.2892H119.252C119.177 12.7562 119.024 12.2828 118.792 11.8691C118.559 11.4491 118.262 11.0917 117.898 10.797C117.534 10.5023 117.114 10.2766 116.637 10.1199C116.168 9.96315 115.657 9.88478 115.104 9.88478C114.108 9.88478 113.24 10.1324 112.5 10.6277C111.76 11.1167 111.186 11.8314 110.779 12.7719C110.371 13.7061 110.167 14.8409 110.167 16.1763C110.167 17.5493 110.371 18.703 110.779 19.6372C111.193 20.5713 111.769 21.2766 112.509 21.7531C113.249 22.2296 114.105 22.4678 115.076 22.4678C115.623 22.4678 116.126 22.3958 116.591 22.2516C117.06 22.1074 117.478 21.8973 117.842 21.6215C118.205 21.3394 118.506 20.9976 118.744 20.5963C118.989 20.1951 119.158 19.7374 119.252 19.2233L123.372 19.2421C123.264 20.1262 122.998 20.9788 122.572 21.8002C122.152 22.6152 121.585 23.3456 120.87 23.9913C120.161 24.6308 119.315 25.1387 118.33 25.5148C117.353 25.8848 116.246 26.0697 115.01 26.0697C113.293 26.0697 111.757 25.681 110.402 24.9035C109.054 24.1262 107.989 23.0008 107.206 21.5274C106.428 20.0541 106.039 18.2704 106.039 16.1763C106.039 14.076 106.434 12.2891 107.224 10.8158C108.014 9.34246 109.086 8.2202 110.441 7.44904C111.795 6.67162 113.318 6.2829 115.01 6.2829C116.126 6.2829 117.162 6.43964 118.114 6.75311C119.073 7.0666 119.923 7.52427 120.663 8.12616C121.402 8.72176 122.005 9.45218 122.468 10.3174C122.939 11.1826 123.24 12.1732 123.372 13.2892Z" fill="#21313C"/>
<path d="M129.546 26.0792C128.624 26.0792 127.803 25.9193 127.082 25.5995C126.361 25.2735 125.791 24.7939 125.37 24.1606C124.956 23.5211 124.75 22.7248 124.75 21.7719C124.75 20.9694 124.898 20.2954 125.192 19.75C125.487 19.2045 125.888 18.7656 126.395 18.4333C126.903 18.1011 127.48 17.8503 128.127 17.681C128.778 17.5117 129.461 17.3926 130.177 17.3237C131.017 17.2358 131.694 17.1544 132.208 17.0791C132.722 16.9976 133.095 16.8784 133.327 16.7217C133.558 16.5651 133.675 16.333 133.675 16.0258V15.9694C133.675 15.3738 133.487 14.913 133.11 14.5869C132.741 14.2609 132.214 14.098 131.531 14.098C130.809 14.098 130.235 14.2579 129.809 14.5775C129.383 14.891 129.101 15.286 128.963 15.7625L125.258 15.4616C125.446 14.5838 125.815 13.8252 126.368 13.1857C126.919 12.54 127.631 12.0446 128.502 11.6998C129.38 11.3487 130.395 11.1732 131.549 11.1732C132.352 11.1732 133.12 11.2672 133.853 11.4553C134.594 11.6433 135.248 11.935 135.819 12.3299C136.396 12.7248 136.85 13.2327 137.183 13.8534C137.515 14.4678 137.681 15.2045 137.681 16.0635V25.8064H133.881V23.8032H133.769C133.537 24.2547 133.227 24.6528 132.838 24.9976C132.449 25.3361 131.982 25.6027 131.436 25.797C130.891 25.9851 130.261 26.0792 129.546 26.0792ZM130.694 23.3143C131.283 23.3143 131.803 23.1982 132.255 22.9663C132.706 22.728 133.061 22.4083 133.318 22.007C133.575 21.6058 133.703 21.1513 133.703 20.6434V19.1105C133.578 19.1919 133.405 19.2672 133.186 19.3361C132.973 19.3989 132.731 19.4585 132.462 19.5148C132.192 19.565 131.922 19.6121 131.653 19.6559C131.383 19.6935 131.139 19.728 130.919 19.7594C130.449 19.8283 130.038 19.9381 129.687 20.0886C129.336 20.239 129.064 20.4427 128.869 20.6998C128.675 20.9506 128.578 21.2641 128.578 21.6403C128.578 22.1857 128.775 22.6026 129.17 22.891C129.572 23.1732 130.08 23.3143 130.694 23.3143Z" fill="#21313C"/>
<path d="M139.992 25.8065V11.3613H143.877V13.8816H144.027C144.291 12.9851 144.732 12.3079 145.353 11.8503C145.974 11.3863 146.688 11.1544 147.497 11.1544C147.698 11.1544 147.914 11.1669 148.146 11.192C148.378 11.217 148.582 11.2515 148.757 11.2954V14.8503C148.569 14.7939 148.309 14.7438 147.977 14.6998C147.644 14.6559 147.341 14.634 147.064 14.634C146.475 14.634 145.948 14.7625 145.485 15.0196C145.027 15.2704 144.663 15.6215 144.394 16.0729C144.131 16.5243 143.998 17.0447 143.998 17.634V25.8065H139.992Z" fill="#21313C"/>
<path d="M158.441 11.3613V14.3707H149.742V11.3613H158.441ZM151.717 7.90045H155.723V21.3675C155.723 21.7374 155.78 22.0258 155.892 22.2328C156.005 22.4334 156.162 22.5745 156.363 22.6559C156.57 22.7375 156.808 22.7782 157.077 22.7782C157.265 22.7782 157.453 22.7625 157.642 22.7312C157.83 22.6936 157.973 22.6653 158.075 22.6465L158.704 25.6278C158.504 25.6904 158.221 25.7625 157.858 25.844C157.494 25.9318 157.053 25.985 156.532 26.0039C155.566 26.0415 154.72 25.913 153.993 25.6183C153.271 25.3237 152.711 24.866 152.309 24.2453C151.908 23.6246 151.711 22.8409 151.717 21.8942V7.90045Z" fill="#21313C"/>
</svg>
